<svg xmlns="http://www.w3.org/2000/svg" data-name="Layer 1" viewBox="0 0 100 125" x="0px" y="0px"><title>Artboard 19</title><path d="M96.28,33.93a7.6,7.6,0,0,0-12.53,5.79V54.77a7.62,7.62,0,0,0-1.61-.36A7.51,7.51,0,0,0,76,56.59L57.46,75.08a13.7,13.7,0,0,0-4,9.75V96.5a2.5,2.5,0,0,0,5,0V84.83A8.73,8.73,0,0,1,61,78.62L79.49,60.13a2.57,2.57,0,0,1,3.64,3.64L72.41,74.49A2.5,2.5,0,0,0,75.95,78L86.67,67.3a7.62,7.62,0,0,0,2-7,2.51,2.51,0,0,0,0-.49V39.72a2.6,2.6,0,1,1,5.21,0v28a10.56,10.56,0,0,1-3.11,7.52L76,90.15a2.5,2.5,0,0,0-.73,1.77V96.5a2.5,2.5,0,0,0,5,0V93L94.37,78.81A15.52,15.52,0,0,0,99,67.75v-28A7.59,7.59,0,0,0,96.28,33.93Z"/><path d="M19.78,93V96.5a2.5,2.5,0,0,0,5,0V91.92A2.5,2.5,0,0,0,24,90.15L9.16,75.27A10.55,10.55,0,0,1,6,67.75v-28a2.6,2.6,0,0,1,5.21,0V59.8a2.51,2.51,0,0,0,0,.49,7.62,7.62,0,0,0,2,7L24.05,78a2.5,2.5,0,0,0,3.54-3.54L16.87,63.76a2.57,2.57,0,0,1,3.64-3.64L39,78.62a8.72,8.72,0,0,1,2.57,6.21V96.5a2.5,2.5,0,0,0,5,0V84.83a13.69,13.69,0,0,0-4-9.75L24,56.59a7.52,7.52,0,0,0-6.18-2.17,7.62,7.62,0,0,0-1.61.36V39.72A7.6,7.6,0,0,0,1,39.72v28A15.52,15.52,0,0,0,5.63,78.81Z"/><path d="M20.32,30.8a29.77,29.77,0,0,0,21.4,28.6l4,7.24a5,5,0,0,0,4.41,2.61h0a5,5,0,0,0,4.41-2.61l4-7.24a29.81,29.81,0,1,0-38.2-28.6Zm54.61,0a24.77,24.77,0,0,1-18.7,24,2.5,2.5,0,0,0-1.58,1.22l-4.56,8.17L45.6,56.07A2.5,2.5,0,0,0,44,54.85a24.8,24.8,0,1,1,30.91-24Z"/><circle cx="50" cy="30.85" r="2.5"/><circle cx="39.44" cy="30.85" r="2.5"/><circle cx="60.56" cy="30.85" r="2.5"/></svg>