<!-- Animated using SVGANIMA - https://svganima.com -->
<svg xmlns="http://www.w3.org/2000/svg" viewBox="0 0 91 113.75" x="0px" y="0px" id="svg7927" preserveAspectRatio="xMidYMid" width="NaN" height="NaN">
  <defs id="defs8771"></defs><path d=" M 76.8,21.2 c 0.43 -0.39 -0.19 -0.98 -0.63 -0.63 -4.68,3.84 -9.28,7.77 -13.82,11.77 -2.22,1.96 -10.67,9.13 -12.15,11.14 -1.1,1.5 -1.63,3.68 -0.89,5.47,.96,2.32,2.69,4.48,3.9,6.69,1.1,2.01,2.15,4.05,3.05,6.15,.43,1,1.68,3.2,1.01,4.24 -1.73,2.68 -4.79,.62 -6.53 -0.65 -1.19 -0.87 -2.7 -1.58 -4.12 -0.79 -3.89,2.18,.34,5.17,2.31,6.81,2.06,1.73,3.85,3.78,6.71,3.36,1.58 -0.24,3.27 -0.67,4.72 -1.37,1.5 -0.72,2.32 -2.41,3.11 -3.84,0,1.53,.28,3.08,.24,4.59 -0.02,.6 -0.07,1.19 -0.16,1.78 -0.07,.45 -0.17,.77 -0.53,1.08 -0.5,.43 -1.18,.66 -1.81,.82 -1.6,.4 -3.4,.5 -5.03,.25 -2.25 -0.34 -4.21 -1.5 -6.03 -2.81 -2.05 -1.48 -5.76 -5.09 -5.78 -5.11 -1.04 -1.02 -2.48 -1.94 -3.99 -1.35 -1.06,.41 -1.64,1.59 -1.67,2.72 -1.49 -0.89 -3.29 -0.92 -4.35,.95 -0.25,.44 -0.35,.89 -0.37,1.34 -0.61 -0.3 -1.28 -0.38 -1.99 -0.15 -1.28 -2.99 -2.89 -5.8 -3.78 -8.96 -1.06 -3.77 -0.08 -7.24,.88 -10.91,.85 -3.23,1.77 -6.48,2.13 -9.81,.18 -1.68 -0.14 -3.6,.41 -5.2,.53 -1.55,1.94 -2.84,3 -4.05,8.22 -9.35,18.38 -17.36,24.89 -28.11,.33 -0.54 -0.47 -0.96 -0.83 -0.48 -2.53,3.4 -5.27,6.57 -8.11,9.66 -4.99 -5.34 -10.15 -10.75 -15.76 -15.43 -0.44 -0.37 -1.04,.2 -0.64,.64,4.94,5.41,10.42,10.45,15.73,15.51 -4.07,4.39 -13.4,14 -13.87,14.51 -2.94 -2.89 -6.54 -5.25 -9.79 -7.75 -3.78 -2.91 -7.5 -5.9 -11.41 -8.63 -0.48 -0.34 -1.09,.44 -0.64,.82,3.52,2.93,7.24,5.63,10.89,8.4,3.44,2.6,6.82,5.33,10.39,7.75 -1.1,1.21 -2.19,2.43 -3.23,3.69 -1.43,1.72 -2.23,3.21 -2.28,5.48 -0.13,5.99 -2.14,11.48 -3.05,17.34 -0.93,6.01,3.9,16.25,3.91,16.29 -0.69,.82 -0.64,1.99 -0.24,3.05 -0.12,.6 -0.05,1.28 -0.12,1.87 -0.09,.72 -0.29,1.42 -0.51,2.1 -0.52,1.55 -1.21,3 -1.49,4.61 -0.13,.71 -0.23,1.37,.05,2.06,.33,.81,.9,1.66,1.7,2.08,1.58,.83,3.37 -0.15,4.54 -1.25,.63 -0.59,1.18 -1.34,1.57 -2.11,.44 -0.87,.69 -1.78,.94 -2.71,.21,.03,.45,.05,.74,.06,1.54,.06,4.76,.06,4.81,.04,1.2,.94,2.41,1.85,3.64,2.74,1.04,.76,1.73,1.15,3,.79,1.66 -0.46,3.31 -1.3,4.86 -2.09,.02,0,.04,0,.06,0,.88,.02,8.46 -3.09,9.19 -4.26,.7 -1.13,.71 -2.58,.31 -3.83,.11 -0.11,.21 -0.23,.3 -0.36,.28 -0.45,.33 -0.98,.39 -1.5,.17 -1.32,.14 -2.64,.03 -3.97 -0.11 -1.26 -0.17 -2.52 -0.29 -3.78,1.06 -2,1.93 -4.13,2.15 -6.39,.24 -2.53 -0.6 -5.02 -1.59 -7.31 -1.26 -2.9 -2.86 -5.63 -3.61 -8.73 -0.75 -3.11 -0.85 -6.37 -1.02 -9.55,.94 -0.83,12 -10.66,16.55 -14.82 Z M 34.45,87.96 c -0.45,.51 -0.93,1.08 -1.56,1.38 -0.68,.33 -1.59,.46 -2.28,.08 -1.39 -0.76 -1.23 -2.41 -0.96 -3.71,.31 -1.46,.95 -2.8,1.4 -4.21,.22 -0.69,.38 -1.4,.46 -2.12,0 -0.08,.02 -0.18,.03 -0.26,1.1,1.51,2.67,2.77,3.99,3.99,.32,.3,.58,.52,.83,.67 -0.27,1.52 -0.88,3.01 -1.9,4.17 Z m 4.22 -4.78 c -0.53 -0.06 -0.98 -0.18 -1.4 -0.36 -0.02 -0.01 -0.04 -0.02 -0.06 -0.03 -1.05 -0.46 -1.81 -1.24 -2.73 -2.11 -0.82 -0.78 -1.7 -1.56 -2.33 -2.5 -0.37 -0.55 -0.86 -1.19 -0.85 -2.2 -0.03 -0.99,.48 -1.43,1.1 -1.57,.82 -0.15,1.29,.16,1.75,.58,.61,1.93,2.61,3.79,3.78,4.96,1.2,1.21,2.48,2.32,3.79,3.39 -1.02 -0.06 -2.04 -0.06 -3.05 -0.17 Z m 9.05,3.25 c -1.94 -0.96 -3.83 -2.84 -5.48 -4.21 -1.59 -1.32 -3.14 -2.71 -4.53 -4.24 -0.83 -0.91 -2.02 -2.02 -2.33 -3.24 -0.29 -1.16,.17 -2.98,1.9 -2.71,.73,.11,1.41,.8,1.87,1.3,.02,.02,.05,.03,.07,.05,.84,1.5,2.52,2.94,3.55,3.96,1.84,1.81,3.83,3.46,5.92,4.98,1.05,.76,2.12,1.49,3.21,2.19,.34,.22,.68,.46,1.05,.67 -1.76,.77 -3.85,1.91 -5.23,1.23 Z m 14.35 -5.07 c -0.63,.44 -1.59,.68 -2.29,.98 -1.09,.47 -2.17,.95 -3.26,1.42 -1.13,.49 -1.79,1 -3.08,.44 -0.69 -0.3 -1.36 -0.85 -1.98 -1.27 -2.65 -1.76 -5.19 -3.72 -7.48 -5.93 -1.14 -1.1 -2.23 -2.27 -3.22 -3.52 -0.85 -1.07 -1.74 -3.47,.54 -3.73,.91 -0.1,1.66,.64,2.22,1.22,.04,.04,3.6,3.45,5.51,4.87,1.89,1.41,4,2.75,6.35,3.19,1.94,.37,3.97,.27,5.89 -0.14,.63 -0.14,1.27 -0.37,1.82 -0.7,.11,1.16 -0.09,2.51 -1.03,3.17 Z m -0.38 -31.94 c 1.93,4.51,4.95,8.99,3.51,14.09 -0.7,2.5 -2.13,4.86 -3.58,6.99 -1.18,1.74 -2.35,2.16 -4.33,2.64 -1.18,.29 -2.66,.72 -3.79,.17 -1.32 -0.64 -2.54 -1.91 -3.66 -2.85 -0.92 -0.77 -2.39 -1.65 -3.06 -2.66 -0.8 -1.21 -0.07 -2.16,1.1 -2.27,.6 -0.06,1.15,.28,1.64,.58,.91,.56,1.65,1.36,2.6,1.87,1.99,1.07,6.07,.71,6.67 -2.01,.17 -0.8-0.19 -1.75 -0.44 -2.49 -0.58 -1.73 -1.37 -3.41 -2.18 -5.04 -0.93 -1.89 -1.92 -3.74 -2.97 -5.56 -1.25 -2.18 -3.53 -4.61 -2.64 -7.26,.84 -2.51,3.94 -4.51,5.84 -6.2,1.16 -1.03,2.32 -2.06,3.49 -3.09 -0.39,4.44,.04,8.96,1.81,13.09 Z " id="path633"></path>
<animate attributeType="auto" attributeName="viewBox" svganima:lock="skip" id="camera3664" keyTimes="0;0;1" keySplines="0 0 1 1;0 0 1 1" values="0 0 91 113.75;0 0 91 113.75;0 0 91 113.75" dur="10s" repeatCount="indefinite" calcMode="spline" fill="freeze" additive="replace" accumulate="none" begin="0s"></animate></svg>