<?xml version="1.0" encoding="UTF-8"?>
<svg version="1.1" viewBox="0 0 1600 1600" width="1280" height="1280" xmlns="http://www.w3.org/2000/svg">
<path transform="translate(1228 178)" d="m0 0h2.26c81.2 0.11 160 27.6 220 82.9 2.13 1.95 4.29 3.84 6.48 5.7 8.3 7.22 16 15.2 23.1 23.6 0.73 0.84 1.45 1.69 2.19 2.56 17.7 20.9 33.4 43.5 46.8 67.4 0.52 0.9 1.03 1.81 1.56 2.74 39.4 69.7 59.5 149 67.1 228 0.27 2.72 0.59 5.43 0.93 8.14 5.35 44.9 0.5 91.5-6.32 136-0.28 1.87-0.56 3.75-0.84 5.63-5.66 37.4-16.3 74-29.5 109-0.37 1.01-0.37 1.01-0.76 2.04-6.01 16.1-13.3 31.5-20.9 46.8-0.4 0.8-0.79 1.6-1.2 2.42-5.26 10.5-10.9 20.7-17.1 30.7-1.11 1.84-2.22 3.69-3.33 5.53-6.03 9.9-12.3 19.4-19.3 28.7-1.37 1.83-2.71 3.68-4.04 5.54-5.91 8.25-12.2 16-18.9 23.6-2.15 2.48-4.21 5.02-6.28 7.56-4.84 5.95-9.7 11.6-15.1 17.1-1.46 1.48-2.93 2.97-4.4 4.45-2.29 2.33-4.6 4.65-6.9 6.97-1.21 1.21-2.41 2.42-3.6 3.64-6.66 6.75-13.3 13.2-20.8 19.1-3.01 2.42-5.75 5.01-8.53 7.69-7.13 6.72-14.9 12.5-22.8 18.2-0.75 0.55-1.51 1.1-2.29 1.66-3.86 2.81-7.73 5.61-11.6 8.39-3.14 2.26-6.24 4.56-9.33 6.89-8.93 6.49-18.4 12.2-27.8 18.1-0.77 0.48-1.54 0.97-2.34 1.47-33.1 20.6-67.5 39-102 56.4-3.68 1.83-7.37 3.68-11 5.53-3.93 1.98-7.87 3.95-11.8 5.92-0.83 0.42-1.66 0.83-2.51 1.26-10.7 5.37-21.5 10.6-32.3 15.8-6.71 3.19-13.3 6.6-19.8 10.1-5.02 2.68-10.1 5.18-15.3 7.56-6.8 3.14-13.4 6.55-20 10.1-8.9 4.73-17.9 9.21-26.9 13.7-4.09 2.03-8.18 4.07-12.3 6.12-3.93 1.97-7.86 3.92-11.8 5.86-9.65 4.77-19.2 9.61-28.6 14.8-10.1 5.57-20.3 10.8-30.5 16.1-0.82 0.41-1.63 0.83-2.47 1.26-3.19 1.63-6.37 3.26-9.55 4.89-10.6 5.42-21.1 11-31.6 16.6-2.34 1.26-4.69 2.53-7.04 3.79-0.88 0.47-0.88 0.47-1.79 0.96-11.1 5.95-22.2 11.8-33.4 17.5-6.03 3.1-12 6.23-18 9.4-8.78 4.64-17.6 9.21-26.4 13.8-5.67 2.94-11.3 5.9-17 8.9-10.6 5.66-21.4 11-32.2 16.4-6.57 3.26-13.1 6.58-19.6 10.1-5.81 3.13-11.7 6.05-17.7 8.82-6.16 2.9-12.3 5.86-18.2 9.13-5.38 2.93-10.8 5.64-16.4 8.24-0.71 0.34-1.42 0.67-2.16 1.02-7.91 3.68-15.7 7.28-24.6 4.81-2.44-0.97-4.79-2.02-7.14-3.2-0.65-0.33-1.32-0.66-2-1-1.5 0.59-2.97 1.24-4.43 1.94-6.39 2.63-12.4 3.53-19 1.18-9.23-4.68-13.4-12.1-17.3-21.4-15.7-35.8-37.2-69.5-65.4-96.9-1.61-1.61-3.04-3.22-4.45-5.01-2.49-2.93-5.1-5.29-8.03-7.77-2.32-2.03-4.56-4.14-6.79-6.26-7.13-6.75-14.8-12.6-22.7-18.4-3.04-2.25-5.99-4.6-8.96-6.95-11.2-8.82-22.4-17.3-34.5-24.7-5.42-3.33-10.7-6.84-16-10.3-8.69-5.7-17.4-11.2-26.4-16.4-0.9-0.52-1.8-1.05-2.74-1.59-6.6-3.83-13.2-7.63-19.8-11.4-4.4-2.53-8.8-5.07-13.2-7.61-2.16-1.24-4.31-2.49-6.47-3.73-5.43-3.13-10.9-6.27-16.3-9.42-10.7-6.16-21.3-12.3-32.1-18.3-11.3-6.31-22.5-12.8-33.7-19.4-2.45-1.43-4.91-2.86-7.37-4.28-9.25-5.37-18.3-11-27.2-16.9-3.42-2.24-6.86-4.47-10.3-6.69-0.69-0.45-1.38-0.9-2.09-1.36-4-2.59-8.02-5.15-12-7.68-11.9-7.47-23.4-15.3-34.7-23.6-1.55-1.15-3.11-2.29-4.67-3.43-3.98-2.93-7.95-5.86-11.9-8.8-3.23-2.38-6.46-4.75-9.69-7.12-3.15-2.33-6.31-4.66-9.46-6.99-1.47-1.08-2.94-2.16-4.42-3.25-8.49-6.23-16.7-12.7-24.6-19.6-2.83-2.46-5.73-4.82-8.66-7.16-6.43-5.22-12.4-10.9-18.4-16.6-2.08-1.94-4.19-3.86-6.3-5.78-6.65-6.04-13.1-12.3-19.4-18.6-1.7-1.7-3.41-3.39-5.11-5.07-1.09-1.09-2.17-2.17-3.26-3.25-0.51-0.5-1.02-1.01-1.54-1.52-3.51-3.53-3.51-3.53-3.51-5.76h-2c-1.33-1.29-1.33-1.29-2.93-3.19-0.63-0.73-1.25-1.46-1.89-2.22-0.72-0.85-1.44-1.71-2.18-2.59-1.27-1.5-2.54-3-3.81-4.5-0.93-1.1-1.86-2.21-2.79-3.31-2.4-2.85-4.81-5.68-7.28-8.47-7.72-8.79-14.7-18-21.5-27.5-1.41-1.95-2.82-3.89-4.25-5.83-51.9-71.2-84.2-157-86.4-325 0.17-1.16 0.34-2.32 0.51-3.52 1-6.86 2.16-13.7 3.49-20.5 0.18-0.88 0.35-1.75 0.52-2.65 7.12-35.6 19.5-69.6 35.8-102 1.19-2.36 2.37-4.73 3.53-7.1 3.07-6.24 6.2-12.4 10-18.2 0.86-1.36 1.73-2.72 2.6-4.07 0.43-0.67 0.86-1.35 1.3-2.04 1.25-1.96 2.46-3.94 3.66-5.92 9.03-14.9 19.3-28.8 30.9-41.9 3.49-3.97 6.75-8.11 10-12.3 0.58-0.63 1.15-1.26 1.74-1.91h2c0.25-0.57 0.5-1.14 0.75-1.73 1.46-2.65 3.18-4.46 5.32-6.6 0.79-0.8 1.59-1.6 2.41-2.42 0.83-0.82 1.67-1.65 2.52-2.5 0.84-0.84 1.67-1.68 2.53-2.55 0.8-0.79 1.59-1.58 2.41-2.4 0.73-0.73 1.46-1.46 2.22-2.21 1.84-1.59 1.84-1.59 3.84-1.59v-2c1.53-1.4 3.13-2.72 4.76-4 1.52-1.22 1.52-1.22 3.07-2.46 0.53-0.42 1.06-0.84 1.61-1.28 2.4-1.93 4.72-3.95 7.06-5.95 46.6-38.6 103-64.8 162-77.3 0.99-0.22 1.98-0.44 3-0.66 50.2-11 103-12 154-4.34 0.71 0.1 1.41 0.21 2.13 0.32 46.3 6.93 92.4 20.7 134 42.7 0.97 0.51 1.94 1.01 2.94 1.53 13.8 7.22 27.2 14.7 40.1 23.5 1.37 0.91 2.74 1.83 4.1 2.74 8.4 5.64 16.5 11.6 24.3 18 1.48 1.19 2.96 2.37 4.44 3.55 6.3 5.05 12.2 10.4 18.1 15.9 3.08 2.88 6.24 5.66 9.44 8.41 1.6 1.42 3.16 2.8 4.58 4.4v2h2c1.38 1.36 1.38 1.36 3 3.31 2.85 3.35 5.76 6.6 8.76 9.82 5.78 6.35 11 13 16.2 19.9 0.82 1.06 0.82 1.06 1.65 2.14 14.6 19.1 26.6 39.3 37.4 60.9 0.4 0.79 0.8 1.59 1.2 2.41 4.15 8.39 7.84 16.8 10.9 25.7 1.08 3.65 1.08 3.65 3.9 5.91 0.25-0.79 0.49-1.57 0.75-2.38 4.86-14 11.4-27.5 18.2-40.6 0.47-0.89 0.93-1.77 1.41-2.68 9.06-17.2 18.7-34 29.9-49.9 1.53-2.16 3.04-4.34 4.55-6.52 6.5-9.39 13.4-18.3 20.7-27.1 2.03-2.46 4.02-4.95 6.01-7.44 0.58-0.72 1.16-1.45 1.75-2.2 1.28-1.61 2.54-3.24 3.77-4.88 0.64-0.74 1.27-1.47 1.91-2.23h2c0.27-0.59 0.54-1.18 0.82-1.79 1.18-2.2 2.39-3.73 4.1-5.54 0.59-0.63 1.18-1.25 1.78-1.9 0.96-1 0.96-1 1.93-2.02 0.66-0.7 1.32-1.4 2.01-2.12 20.3-21.3 20.3-21.3 30.8-29.5 2.88-2.33 5.55-4.83 8.24-7.37 6.68-6.24 13.9-11.7 21.2-17.2 2.01-1.5 3.99-3.03 5.97-4.56 72.6-56 167-92.6 264-93.3zm-59.4 59.2c-0.69 0.14-1.38 0.27-2.1 0.41-61.8 12.2-120 35.4-171 73.6-0.59 0.44-1.18 0.89-1.8 1.34-8.73 6.51-17 13.5-25.2 20.7-0.77 0.67-1.54 1.34-2.34 2.04-1.26 1.09-2.52 2.19-3.77 3.3-1.45 1.27-2.9 2.53-4.37 3.79-1.24 1.08-1.24 1.08-2.52 2.18-0.76 0.66-1.52 1.31-2.31 1.99-1.92 1.54-1.92 1.54-1.69 3.7-0.56 0.23-1.12 0.47-1.69 0.71-6.87 3.85-12.3 11.1-17.3 17-2.07 2.35-4.19 4.64-6.33 6.93-5.51 5.9-10.7 12-15.6 18.3-0.59 0.73-1.19 1.46-1.8 2.21-11.4 13.9-21.5 28.8-31.2 43.8-0.51 0.8-1.03 1.59-1.56 2.42-9.27 14.4-17.5 29.4-25.4 44.6-0.77 1.47-0.77 1.47-1.55 2.96-9.2 17.6-17 35.7-24.4 54-0.39 0.98-0.39 0.98-0.8 1.98-1.73 4.28-3.41 8.58-5.07 12.9-0.63 1.61-0.63 1.61-1.28 3.24-2.58 6.89-3.38 12.6-2.85 19.9 0.08 1.01 0.15 2.03 0.22 3.07 0.17 2.3 0.34 4.6 0.52 6.9 0.52 7.34 0.68 14.7 0.88 22 0.05 1.83 0.1 3.65 0.16 5.48 0.85 25.6 0.85 25.6-5.78 33.5-7.46 7.14-14.8 9.2-25 9-4.83-0.75-8.61-2.14-11.9-5.81-4.14-6.39-4.73-13.2-5.75-20.6-5.3-35.8-14.7-71-28.3-105-0.4-1.02-0.81-2.04-1.23-3.08-4.77-11.9-9.81-23.5-15.7-34.9-1.17-2.29-2.3-4.6-3.42-6.92-4.9-10.1-10.2-19.7-16.3-29-1.46-2.27-2.88-4.55-4.29-6.85-5.89-9.53-12.1-18.5-19.1-27.2-0.81-1.06-1.61-2.13-2.42-3.19-7.71-10.2-15.8-20.3-25-29.2-1.81-1.8-3.47-3.7-5.14-5.63-3.01-3.48-6.06-6.8-9.44-9.94h-2v-2c-1.55-1.39-3.17-2.71-4.81-4-3.94-3.14-7.66-6.34-11.3-9.81-6.42-5.89-13.4-10.8-20.6-15.7-2.15-1.47-4.28-2.96-6.4-4.46-12.7-8.8-26.1-16-39.8-23.1-1.09-0.56-1.09-0.56-2.2-1.14-4.19-2.13-8.46-4.04-12.8-5.86-1.27-0.55-1.27-0.55-2.58-1.11-24.6-10.4-50.9-17.8-77.4-20.9-1.44-0.19-2.89-0.38-4.34-0.57-9.52-1.24-19.1-2.13-28.7-2.43-1.07-0.03-2.14-0.07-3.24-0.1-31.9-0.85-62.7 2.84-93.8 10.1-1.4 0.32-1.4 0.32-2.83 0.64-13 2.97-25.6 6.91-38.2 11.4-0.84 0.29-1.68 0.58-2.54 0.89-15.5 5.4-30 12.5-44.5 20.1-0.77 0.4-1.54 0.8-2.33 1.21-13 6.73-24.8 15.3-36.7 23.8-0.66 0.47-1.32 0.94-2 1.42-6.24 4.45-12 9.25-17.6 14.5-3.3 3.09-6.71 6-10.2 8.84-6.41 5.18-11.9 10.8-17.3 17.1-2.99 3.43-6.1 6.75-9.19 10.1-1.94 1.9-1.94 1.9-1.73 4.1h-2c-1.8 2.15-3.47 4.3-5.12 6.56-0.52 0.71-1.05 1.42-1.58 2.15-1.78 2.42-3.54 4.86-5.3 7.29-0.63 0.87-1.26 1.73-1.92 2.63-10.3 14.2-19.1 28.8-27.1 44.4-0.74 1.41-1.48 2.82-2.23 4.22-8.94 17.1-16.2 35.3-21.8 53.8-0.3 1.01-0.61 2.02-0.92 3.06-11.2 37.4-17.8 76.8-16.1 116 0.05 1.09 0.09 2.17 0.13 3.3 1.28 30.3 5.79 59.4 13.9 88.7 0.24 0.88 0.47 1.76 0.71 2.66 17.7 66.9 60.5 131 110 180 1.77 1.79 3.41 3.66 5.05 5.57 3.96 4.59 8.07 9.12 12.6 13.1h2v2c1.56 1.57 1.56 1.57 3.57 3.19 2.71 2.3 5.28 4.62 7.75 7.18 3.67 3.75 7.71 6.96 11.8 10.2 2.87 2.38 5.6 4.85 8.32 7.39 4.52 4.14 9.21 7.84 14.2 11.5 4.12 3.04 8.14 6.2 12.2 9.35 11.2 8.71 22.4 17.3 34 25.4 0.64 0.46 1.29 0.92 1.96 1.39 4.89 3.43 9.85 6.75 14.8 10.1 3.18 2.11 6.35 4.25 9.52 6.38 16.7 11.2 33.3 22.2 50.6 32.5 3.59 2.15 7.13 4.37 10.7 6.6 17.9 11.2 36 22.1 54.2 32.8 6.06 3.58 12.1 7.18 18.1 10.8 7.82 4.7 15.6 9.36 23.5 14 39.6 23.4 39.6 23.4 55.8 34.2 1.45 0.95 2.9 1.9 4.34 2.85 22.4 14.8 44.1 30.4 64.8 47.6 1.67 1.38 3.35 2.74 5.05 4.1 5.53 4.41 10.6 9.07 15.5 14.1 2.02 2.03 4.08 3.91 6.26 5.77 8.06 6.94 15.2 14.5 21.8 22.8 2.24 2.74 4.61 5.29 7.05 7.86 5.91 6.43 10.8 13.5 15.7 20.7 1.37 1.97 2.77 3.92 4.19 5.86 8.7 12 15.5 25.1 22.3 38.3 0.78 1.48 0.78 1.48 1.57 2.99 3.76 7.31 6.81 14.8 9.69 22.4 0.85 2.27 1.71 4.54 2.57 6.81 0.37 0.98 0.74 1.97 1.13 2.99 0.98 2.6 2 5.18 3.04 7.76 3.97-1.85 7.62-4.18 11.3-6.5 0.71-0.45 1.42-0.89 2.15-1.35 4.58-2.88 9.11-5.83 13.6-8.84 16.2-10.8 32.3-21.4 49.3-30.9 4.38-2.45 8.74-4.95 13.1-7.45 1.77-1 3.53-2.01 5.29-3.01 3.4-1.95 6.8-3.91 10.2-5.88 13.4-7.82 27.2-15 41-22.1 4.22-2.16 8.43-4.33 12.6-6.5 1.47-0.76 2.93-1.51 4.39-2.27l6.33-3.27c17.1-8.84 34.4-17.4 51.7-25.8 1.49-0.73 1.49-0.73 3.02-1.48 12.5-6.1 25-12.2 37.5-18.2 6.64-3.16 13.3-6.36 19.9-9.56 9.63-4.65 19.3-9.28 28.9-13.9 7.38-3.52 14.7-7.06 22.1-10.6 8.37-4.03 16.8-8.06 25.1-12.1 1.39-0.67 1.39-0.67 2.81-1.35 4.91-2.35 9.83-4.69 14.7-7.02 17.4-8.29 34.6-17.1 51.6-26.3 4.19-2.24 8.44-4.37 12.7-6.47 17.1-8.44 33.6-17.8 50.2-27.2 3.4-1.93 6.81-3.84 10.2-5.71 8.74-4.77 17.2-9.83 25.5-15.3 5.5-3.61 11.1-7.07 16.7-10.6 4.01-2.5 8.01-5 12-7.5 0.81-0.5 1.61-1 2.43-1.52 10.8-6.75 21-14.1 31.2-21.7 3.23-2.41 6.47-4.79 9.71-7.17 3.15-2.32 6.31-4.64 9.46-6.97 1.47-1.09 2.95-2.18 4.43-3.27 8.18-6.02 16.1-12.2 23.8-18.8 2.73-2.34 5.51-4.58 8.32-6.82 6.18-5.03 11.9-10.5 17.7-16 2.42-2.29 4.85-4.56 7.33-6.79 8.38-7.54 16.1-15.6 23.8-23.9 1.76-1.9 3.53-3.79 5.3-5.68 5.05-5.39 9.95-10.8 14.5-16.7 1.57-2 3.15-3.98 4.77-5.94 16-19.5 30-40.7 42.2-62.7 1.31-2.35 2.64-4.69 3.96-7.04 6.48-11.5 12.2-23.2 17.1-35.5 0.98-2.41 1.99-4.8 3.01-7.19 14.7-34.9 23.5-71.9 29-109 0.11-0.73 0.22-1.46 0.33-2.21 6.21-42.7 6.71-88.9 0.95-132-0.29-2.19-0.58-4.38-0.86-6.57-5.9-44.9-16.5-88.6-33.1-131-0.31-0.78-0.61-1.56-0.93-2.36-3.99-10.1-8.46-19.9-13.4-29.5-1.35-2.65-2.66-5.31-3.97-7.98-7.02-14.3-14.8-28-23.8-41.2-1.71-2.51-3.32-5.07-4.96-7.62-4.68-7.04-10.1-13.5-15.5-20-1.15-1.4-2.28-2.83-3.38-4.27-6.24-8.1-13.4-15.3-20.6-22.5-0.67-0.66-1.33-1.33-2.01-2.01-9.84-9.82-19.8-18.9-31.3-26.7-1.8-1.22-3.58-2.47-5.36-3.73-7.74-5.48-15.7-10.4-24-14.9-0.62-0.34-1.25-0.69-1.9-1.04-24-13.1-49.1-22.2-76.1-27-0.78-0.15-1.57-0.3-2.38-0.45-31.9-5.91-67.9-4.77-99.6 1.45z" fill="#000100"/>
</svg>
